<svg  xmlns="http://www.w3.org/2000/svg" viewBox="241 423 542.07 88" height="90px" width="543px" version="1.1">
      <g id="title" style="font-style:normal;font-weight:800;font-size:72px;line-height:1;font-family:'Montserrat ExtraBold Alt1';font-variant-ligatures:none;text-align:center;text-anchor:middle" transform="translate(0 0)">
        <path id="path540500" style="font-style:normal;font-weight:800;font-size:72px;line-height:1;font-family:'Montserrat ExtraBold Alt1';font-variant-ligatures:none;text-align:center;text-anchor:middle" d="m 396.80563,-18.072 19.296,-32.328 h -13.82401 l -11.952,20.016 -11.952,-20.016 h -15.048 l 19.224,32.112 V 0 h 14.25601 z" stroke-width="0" stroke-linejoin="miter" stroke-miterlimit="2" fill="#FFFFFF" stroke="#000000" transform="translate(0 408.676) translate(240.96525415000002 17.24000000000001) scale(1.67) translate(-363.32562 50.4)"></path>
        <path id="path540502" style="font-style:normal;font-weight:800;font-size:72px;line-height:1;font-family:'Montserrat ExtraBold Alt1';font-variant-ligatures:none;text-align:center;text-anchor:middle" d="m 459.40625,-50.4 h -39.96 v 11.016 h 39.96 z m 0,19.512 h -39.96 v 10.656 h 39.96 z m -39.96,19.872 V 0 h 39.96 v -11.016 z" stroke-width="0" stroke-linejoin="miter" stroke-miterlimit="2" fill="#FFFFFF" stroke="#000000" transform="translate(0 408.676) translate(344.7067062500001 17.24000000000001) scale(1.67) translate(-419.44625 50.4)"></path>
        <path id="path540504" style="font-style:normal;font-weight:800;font-size:72px;line-height:1;font-family:'Montserrat ExtraBold Alt1';font-variant-ligatures:none;text-align:center;text-anchor:middle" d="m 478.69662,-2.376 c 4.248,2.304 9.072,3.384 14.40001,3.384 5.32799,0 10.07999,-1.08 14.32799,-3.384 4.248,-2.232 7.56001,-5.328 10.00801,-9.36 2.44799,-3.96 3.672,-8.424 3.672,-13.464 0,-4.968 -1.22401,-9.432 -3.672,-13.464 -2.448,-3.96 -5.76001,-7.056 -10.00801,-9.36 -4.248,-2.232 -9,-3.384 -14.32799,-3.384 -5.32801,0 -10.15201,1.152 -14.40001,3.384 -4.248,2.304 -7.56,5.4 -10.008,9.36 -2.44799,4.032 -3.6,8.496 -3.6,13.464 0,5.04 1.15201,9.504 3.6,13.464 2.448,4.032 5.76,7.128 10.008,9.36 z m 21.312,-10.224 c -2.088,1.224 -4.392,1.8 -6.91199,1.8 -2.59201,0 -4.89601,-0.576 -6.91201,-1.8 -2.08799,-1.152 -3.744,-2.88 -4.89599,-5.04 -1.22401,-2.16 -1.8,-4.68 -1.8,-7.56 0,-2.808 0.57599,-5.328 1.8,-7.488 1.15199,-2.16 2.808,-3.888 4.89599,-5.112 2.016,-1.152 4.32,-1.8 6.91201,-1.8 2.51999,0 4.82399,0.648 6.91199,1.8 2.01601,1.224 3.67201,2.952 4.896,5.112 1.152,2.16 1.80001,4.68 1.80001,7.488 0,2.88 -0.64801,5.4 -1.80001,7.56 -1.22399,2.16 -2.87999,3.888 -4.896,5.04 z" stroke-width="0" stroke-linejoin="miter" stroke-miterlimit="2" fill="#FFFFFF" stroke="#000000" transform="translate(0 408.676) translate(430.9494641500001 15.556640000000002) scale(1.67) translate(-465.08862 51.408)"></path>
        <path id="path540506" style="font-style:normal;font-weight:800;font-size:72px;line-height:1;font-family:'Montserrat ExtraBold Alt1';font-variant-ligatures:none;text-align:center;text-anchor:middle" d="m 528.57125,0 h 13.968 v -8.496 l -13.968,-17.784 z m 33.984,-50.4 v 9.144 l 13.968,16.848 V -50.4 Z m 0,26.856 -22.248,-26.856 h -11.736 v 6.696 l 13.968,16.848 22.248,26.856 h 11.736 v -5.832 l -13.968,-17.784 z" stroke-width="0" stroke-linejoin="miter" stroke-miterlimit="2" fill="#FFFFFF" stroke="#000000" transform="translate(0 408.676) translate(546.98545625 17.24000000000001) scale(1.67) translate(-528.57125 50.4)"></path>
        <path id="path540508" style="font-style:normal;font-weight:800;font-size:72px;line-height:1;font-family:'Montserrat ExtraBold Alt1';font-variant-ligatures:none;text-align:center;text-anchor:middle" d="M 586.64937,-50.4 V 0 h 14.25601 v -50.4 z" stroke-width="0" stroke-linejoin="miter" stroke-miterlimit="2" fill="#FFFFFF" stroke="#000000" transform="translate(0 408.676) translate(653.99591665 17.24000000000001) scale(1.67) translate(-586.64937 50.4)"></path>
        <path id="path540510" style="font-style:normal;font-weight:800;font-size:72px;line-height:1;font-family:'Montserrat ExtraBold Alt1';font-variant-ligatures:none;text-align:center;text-anchor:middle" d="m 621.99013,-2.304 c 4.17599,2.232 8.928,3.312 14.25599,3.312 4.608,0 8.712,-0.792 12.45601,-2.448 3.672,-1.584 6.768,-3.96 9.216,-7.056 l -9.072,-8.208 c -3.312,3.96 -7.27201,5.904 -11.88,5.904 -2.736,0 -5.18401,-0.576 -7.34401,-1.8 -2.15999,-1.152 -3.816,-2.88 -4.96799,-5.04 -1.15201,-2.16 -1.72801,-4.68 -1.72801,-7.56 0,-2.808 0.576,-5.328 1.72801,-7.488 1.15199,-2.16 2.808,-3.888 4.96799,-5.112 2.16,-1.152 4.60801,-1.8 7.34401,-1.8 4.60799,0 8.568,2.016 11.88,5.904 l 9.072,-8.208 c -2.448,-3.024 -5.544,-5.4 -9.216,-7.056 -3.74401,-1.584 -7.84801,-2.448 -12.45601,-2.448 -5.32799,0 -10.08,1.152 -14.25599,3.384 -4.17601,2.232 -7.48801,5.328 -9.86401,9.288 -2.44799,4.032 -3.6,8.496 -3.6,13.536 0,5.04 1.15201,9.576 3.6,13.536 2.376,4.032 5.688,7.128 9.86401,9.36 z" stroke-width="0" stroke-linejoin="miter" stroke-miterlimit="2" fill="#FFFFFF" stroke="#000000" transform="translate(0 408.676) translate(700.5500891500002 15.556640000000002) scale(1.67) translate(-608.52612 51.408)"></path>
      </g>
</svg>